<mxfile host="65bd71144e" modified="2021-02-11T20:57:52.802Z" agent="5.0 (Macintosh; Intel Mac OS X 11_2_1) AppleWebKit/537.36 (KHTML, like Gecko) Code/1.53.1 Chrome/87.0.4280.141 Electron/11.2.1 Safari/537.36" etag="8E9hSrYISnJxCAjLU-3O" version="14.2.4" type="embed">
    <diagram id="FKqktztcBN4K4i71OJ5Y" name="ページ1">
        <mxGraphModel dx="799" dy="679" grid="1" gridSize="10" guides="1" tooltips="1" connect="1" arrows="1" fold="1" page="1" pageScale="1" pageWidth="827" pageHeight="1169" background="none" math="0" shadow="0">
            <root>
                <mxCell id="0"/>
                <mxCell id="1" parent="0"/>
                <mxCell id="5" value="" style="whiteSpace=wrap;html=1;aspect=fixed;fillColor=#d5e8d4;strokeColor=#82b366;rounded=1;arcSize=2;strokeWidth=5;" parent="1" vertex="1">
                    <mxGeometry x="253" y="425" width="320" height="320" as="geometry"/>
                </mxCell>
                <mxCell id="12" value="" style="ellipse;whiteSpace=wrap;html=1;rotation=90;fillColor=#fad7ac;strokeColor=#b46504;strokeWidth=5;" parent="1" vertex="1">
                    <mxGeometry x="522.5" y="593.5" width="109" height="76" as="geometry"/>
                </mxCell>
                <mxCell id="13" value="Yonde" style="text;html=1;resizable=0;autosize=1;align=center;verticalAlign=middle;points=[];fillColor=none;strokeColor=none;rounded=0;fontSize=100;fontFamily=Comic Sans MS;fontColor=#333333;spacing=2;" parent="1" vertex="1">
                    <mxGeometry x="264" y="720" width="300" height="130" as="geometry"/>
                </mxCell>
                <mxCell id="14" value="" style="ellipse;whiteSpace=wrap;html=1;rotation=90;fillColor=#fad7ac;strokeColor=#b46504;strokeWidth=5;" parent="1" vertex="1">
                    <mxGeometry x="195" y="593.5" width="109" height="76" as="geometry"/>
                </mxCell>
                <mxCell id="18" value="" style="endArrow=none;html=1;fillColor=#f0a30a;strokeColor=#BD7000;strokeWidth=5;" edge="1" parent="1">
                    <mxGeometry width="50" height="50" relative="1" as="geometry">
                        <mxPoint x="369" y="575" as="sourcePoint"/>
                        <mxPoint x="459" y="575" as="targetPoint"/>
                        <Array as="points">
                            <mxPoint x="389" y="585"/>
                            <mxPoint x="439" y="585"/>
                        </Array>
                    </mxGeometry>
                </mxCell>
                <mxCell id="22" value="" style="ellipse;whiteSpace=wrap;html=1;rounded=1;direction=south;rotation=65;fillColor=#6d8764;strokeColor=#3A5431;fontColor=#ffffff;" vertex="1" parent="1">
                    <mxGeometry x="360" y="520" width="20" height="23" as="geometry"/>
                </mxCell>
                <mxCell id="23" value="" style="ellipse;whiteSpace=wrap;html=1;rounded=1;direction=south;rotation=100;fillColor=#6d8764;strokeColor=#3A5431;fontColor=#ffffff;" vertex="1" parent="1">
                    <mxGeometry x="450" y="520" width="20" height="23" as="geometry"/>
                </mxCell>
            </root>
        </mxGraphModel>
    </diagram>
</mxfile>
